<?xml version="1.0" standalone="no"?>
<!DOCTYPE svg PUBLIC "-//W3C//DTD SVG 20010904//EN"
 "http://www.w3.org/TR/2001/REC-SVG-20010904/DTD/svg10.dtd">
<svg version="1.0" xmlns="http://www.w3.org/2000/svg"
 width="60.000000pt" height="12.000000pt" viewBox="0 0 402.000000 83.000000"
 preserveAspectRatio="xMidYMid meet">
<metadata>
Created by potrace 1.15, written by Peter Selinger 2001-2017
</metadata>
<g transform="translate(0.000000,83.000000) scale(0.100000,-0.100000)"
fill="#000000" stroke="none">
<path d="M1550 811 c-28 -15 -35 -24 -33 -46 3 -44 -103 -693 -116 -709 -10
-12 -8 -19 9 -36 17 -17 31 -20 77 -18 68 4 89 26 100 108 12 78 34 79 62 1
13 -36 34 -70 52 -85 27 -23 40 -26 103 -26 58 0 76 4 89 18 27 30 22 60 -10
64 -23 2 -34 14 -58 63 l-30 60 44 25 c59 33 91 80 91 136 0 35 -5 47 -31 68
-25 21 -41 26 -85 26 -75 0 -114 -21 -114 -61 0 -26 3 -29 20 -24 48 15 80
-44 47 -88 -13 -19 -146 -72 -155 -62 -3 3 14 127 38 276 l43 271 -20 26 c-26
34 -75 40 -123 13z"/>
<path d="M694 716 c-24 -24 -44 -51 -44 -61 0 -22 82 -105 104 -105 21 0 93
65 102 92 5 15 -5 32 -42 69 -27 27 -55 49 -62 49 -8 0 -34 -20 -58 -44z"/>
<path d="M2909 712 c-37 -37 -47 -53 -42 -70 7 -27 77 -92 99 -92 22 0 104 83
104 105 0 20 -81 105 -100 105 -7 0 -35 -22 -61 -48z"/>
<path d="M2807 675 c-33 -68 -57 -75 -279 -75 l-198 0 0 -25 c0 -20 5 -25 25
-25 21 0 24 -3 19 -27 -3 -16 -13 -77 -22 -138 -15 -98 -19 -110 -39 -113 -12
-2 -24 -13 -27 -25 -9 -34 -8 -37 15 -37 20 0 21 -3 14 -57 -3 -32 -13 -71
-20 -86 -13 -25 -12 -30 6 -48 19 -19 97 -27 134 -13 22 9 41 50 49 104 17
110 12 103 71 96 29 -3 60 -9 69 -12 11 -4 23 11 45 55 37 73 38 85 8 98 -21
10 -27 7 -50 -23 -25 -30 -99 -65 -112 -52 -2 2 2 47 11 99 8 52 13 105 10
119 l-5 25 102 -3 c88 -3 106 0 133 16 54 34 111 182 71 182 -7 0 -21 -16 -30
-35z"/>
<path d="M453 624 c-19 -21 -31 -24 -91 -24 -124 0 -202 -62 -202 -162 0 -62
15 -95 86 -182 47 -59 55 -74 52 -104 -4 -46 -48 -74 -122 -77 -42 -1 -51 -5
-51 -20 0 -54 190 -77 270 -32 56 32 85 79 85 139 0 59 -17 94 -83 173 -27 33
-54 70 -60 82 -25 56 31 106 94 84 18 -6 34 -11 35 -11 2 0 20 31 39 70 33 67
34 70 16 80 -28 15 -43 11 -68 -16z"/>
<path d="M3235 574 c-15 -16 -26 -44 -30 -72 -9 -69 -11 -72 -49 -72 -26 0
-35 -5 -40 -22 -11 -42 -7 -48 29 -48 19 0 35 -3 35 -7 0 -5 -7 -48 -15 -98
-25 -153 -18 -201 35 -242 23 -19 164 -16 203 3 74 39 114 82 89 98 -5 3 -34
-8 -67 -25 -64 -32 -103 -37 -112 -13 -3 8 2 63 11 122 28 178 21 162 76 162
27 0 60 -4 74 -10 25 -9 28 -6 56 50 29 57 29 60 11 70 -25 13 -51 13 -51 0 0
-16 -56 -40 -94 -40 l-34 0 5 43 c3 23 9 46 14 52 31 33 -13 75 -79 75 -33 0
-48 -6 -67 -26z"/>
<path d="M3848 478 c-26 -28 -31 -30 -72 -24 -91 14 -171 -33 -183 -107 -9
-55 3 -83 62 -147 30 -33 55 -65 55 -72 -1 -35 -42 -58 -104 -58 -56 0 -62
-21 -13 -50 25 -16 50 -20 114 -20 78 0 84 2 118 31 70 62 65 141 -14 224 -55
57 -65 80 -45 100 9 9 24 13 33 10 58 -23 64 -20 99 50 18 37 32 68 30 70 -6
5 -47 25 -50 25 -2 -1 -15 -15 -30 -32z"/>
<path d="M1293 473 c-19 -26 -24 -28 -104 -28 -104 -1 -170 -27 -228 -90 -51
-56 -71 -104 -71 -172 0 -68 27 -124 77 -158 33 -22 48 -25 128 -25 85 0 94 2
145 32 62 38 80 62 62 80 -9 9 -25 5 -73 -20 -72 -37 -97 -39 -132 -12 -72 57
-55 239 25 278 39 18 118 -2 111 -28 -4 -14 2 -21 21 -26 15 -3 28 -5 30 -3 2
2 22 42 45 87 40 79 41 85 24 98 -26 20 -37 17 -60 -13z"/>
<path d="M610 429 c0 -15 5 -29 12 -31 9 -3 7 -39 -10 -149 -38 -246 -35 -253
95 -247 90 3 108 14 93 52 -4 12 -16 21 -26 21 -22 0 -23 -4 12 212 13 84 24
156 24 160 0 4 -45 8 -100 9 l-100 0 0 -27z"/>
<path d="M2823 432 c-4 -16 -1 -27 9 -33 13 -7 12 -27 -9 -151 -39 -243 -35
-252 96 -247 44 2 85 9 91 15 16 16 -6 68 -25 60 -20 -7 -19 10 10 194 14 85
25 162 25 170 0 12 -17 15 -95 15 -93 1 -96 0 -102 -23z"/>
<path d="M2006 289 c-12 -61 -15 -59 103 -59 l109 0 5 38 c2 20 2 40 0 45 -2
4 -51 7 -107 7 l-103 0 -7 -31z"/>
</g>
</svg>
